<mxfile host="app.diagrams.net" modified="2022-06-25T21:07:39.488Z" agent="5.0 (Macintosh; Intel Mac OS X 10_15_7) AppleWebKit/537.36 (KHTML, like Gecko) Chrome/103.0.0.0 Safari/537.36" etag="a1J9MPoecEcfLn7DQbD6" version="20.0.3" type="github">
  <diagram id="We4SG0WlznDGIVPF96I6" name="Page-1">
    <mxGraphModel dx="1217" dy="935" grid="1" gridSize="10" guides="1" tooltips="1" connect="1" arrows="1" fold="1" page="1" pageScale="1" pageWidth="1169" pageHeight="827" math="0" shadow="0">
      <root>
        <mxCell id="0" />
        <mxCell id="1" parent="0" />
        <mxCell id="2jFuDwrBtj5Vru6HDha2-1" value="React Frontend" style="shape=image;html=1;verticalAlign=top;verticalLabelPosition=bottom;labelBackgroundColor=#ffffff;imageAspect=0;aspect=fixed;image=https://cdn1.iconfinder.com/data/icons/unicons-line-vol-5/24/react-128.png" parent="1" vertex="1">
          <mxGeometry x="360" y="160" width="70" height="70" as="geometry" />
        </mxCell>
        <mxCell id="2jFuDwrBtj5Vru6HDha2-2" value="formResults" style="outlineConnect=0;dashed=0;verticalLabelPosition=bottom;verticalAlign=top;align=center;html=1;shape=mxgraph.aws3.dynamo_db;fillColor=#2E73B8;gradientColor=none;" parent="1" vertex="1">
          <mxGeometry x="1090" y="680" width="62.22" height="70" as="geometry" />
        </mxCell>
        <mxCell id="0Y6zszm3ao2ILEMnPXkU-27" style="edgeStyle=orthogonalEdgeStyle;rounded=0;orthogonalLoop=1;jettySize=auto;html=1;entryX=0.58;entryY=0;entryDx=0;entryDy=0;entryPerimeter=0;" edge="1" parent="1" target="0Y6zszm3ao2ILEMnPXkU-25">
          <mxGeometry relative="1" as="geometry">
            <mxPoint x="979" y="250" as="sourcePoint" />
          </mxGeometry>
        </mxCell>
        <mxCell id="2jFuDwrBtj5Vru6HDha2-3" value="dataHandler.js" style="outlineConnect=0;dashed=0;verticalLabelPosition=bottom;verticalAlign=top;align=center;html=1;shape=mxgraph.aws3.lambda_function;fillColor=#F58534;gradientColor=none;" parent="1" vertex="1">
          <mxGeometry x="950" y="165" width="57.5" height="60" as="geometry" />
        </mxCell>
        <mxCell id="2jFuDwrBtj5Vru6HDha2-4" value="Api Gateway" style="outlineConnect=0;dashed=0;verticalLabelPosition=bottom;verticalAlign=top;align=center;html=1;shape=mxgraph.aws3.api_gateway;fillColor=#D9A741;gradientColor=none;" parent="1" vertex="1">
          <mxGeometry x="820" y="160" width="60" height="70" as="geometry" />
        </mxCell>
        <mxCell id="2jFuDwrBtj5Vru6HDha2-7" value="User" style="shape=umlActor;verticalLabelPosition=bottom;verticalAlign=top;html=1;outlineConnect=0;" parent="1" vertex="1">
          <mxGeometry x="90" y="180" width="30" height="60" as="geometry" />
        </mxCell>
        <mxCell id="0Y6zszm3ao2ILEMnPXkU-1" style="edgeStyle=orthogonalEdgeStyle;rounded=0;orthogonalLoop=1;jettySize=auto;html=1;exitX=1;exitY=0.5;exitDx=0;exitDy=0;exitPerimeter=0;" edge="1" parent="1" source="2jFuDwrBtj5Vru6HDha2-11" target="2jFuDwrBtj5Vru6HDha2-1">
          <mxGeometry relative="1" as="geometry" />
        </mxCell>
        <mxCell id="2jFuDwrBtj5Vru6HDha2-11" value="" style="sketch=0;aspect=fixed;pointerEvents=1;shadow=0;dashed=0;html=1;strokeColor=none;labelPosition=center;verticalLabelPosition=bottom;verticalAlign=top;align=center;fillColor=#00188D;shape=mxgraph.azure.mobile" parent="1" vertex="1">
          <mxGeometry x="120" y="180" width="21" height="30" as="geometry" />
        </mxCell>
        <mxCell id="0Y6zszm3ao2ILEMnPXkU-15" style="edgeStyle=orthogonalEdgeStyle;rounded=0;orthogonalLoop=1;jettySize=auto;html=1;entryX=0.5;entryY=1;entryDx=0;entryDy=0;entryPerimeter=0;" edge="1" parent="1" target="2jFuDwrBtj5Vru6HDha2-11">
          <mxGeometry relative="1" as="geometry">
            <mxPoint x="980" y="410" as="sourcePoint" />
            <Array as="points">
              <mxPoint x="979" y="520" />
              <mxPoint x="130" y="520" />
            </Array>
          </mxGeometry>
        </mxCell>
        <mxCell id="0Y6zszm3ao2ILEMnPXkU-23" value="" style="endArrow=classic;startArrow=classic;html=1;rounded=0;exitX=1;exitY=0.5;exitDx=0;exitDy=0;" edge="1" parent="1" source="2jFuDwrBtj5Vru6HDha2-1" target="2jFuDwrBtj5Vru6HDha2-4">
          <mxGeometry width="50" height="50" relative="1" as="geometry">
            <mxPoint x="530" y="215" as="sourcePoint" />
            <mxPoint x="580" y="165" as="targetPoint" />
          </mxGeometry>
        </mxCell>
        <mxCell id="0Y6zszm3ao2ILEMnPXkU-24" value="" style="endArrow=classic;startArrow=classic;html=1;rounded=0;entryX=0;entryY=0.5;entryDx=0;entryDy=0;entryPerimeter=0;" edge="1" parent="1" source="2jFuDwrBtj5Vru6HDha2-4" target="2jFuDwrBtj5Vru6HDha2-3">
          <mxGeometry width="50" height="50" relative="1" as="geometry">
            <mxPoint x="800" y="225" as="sourcePoint" />
            <mxPoint x="850" y="175" as="targetPoint" />
          </mxGeometry>
        </mxCell>
        <mxCell id="0Y6zszm3ao2ILEMnPXkU-25" value="Amazon SES" style="outlineConnect=0;dashed=0;verticalLabelPosition=bottom;verticalAlign=top;align=center;html=1;shape=mxgraph.aws3.ses;fillColor=#D9A741;gradientColor=none;" vertex="1" parent="1">
          <mxGeometry x="944.66" y="310" width="59.84" height="70" as="geometry" />
        </mxCell>
        <mxCell id="0Y6zszm3ao2ILEMnPXkU-29" value="&lt;span id=&quot;docs-internal-guid-ea57087a-7fff-a013-2bbe-6e101f3fcb0f&quot; style=&quot;font-size: 10px;&quot;&gt;&lt;span style=&quot;font-family: Arial; background-color: transparent; font-variant-numeric: normal; font-variant-east-asian: normal; vertical-align: baseline; font-size: 10px;&quot;&gt;&lt;font style=&quot;font-size: 10px;&quot;&gt;name, &lt;br style=&quot;font-size: 10px;&quot;&gt;emailAddress,&lt;br style=&quot;font-size: 10px;&quot;&gt;favouriteBrowser,&lt;br style=&quot;font-size: 10px;&quot;&gt;reason&lt;/font&gt;&lt;/span&gt;&lt;/span&gt;" style="text;html=1;align=left;verticalAlign=middle;resizable=0;points=[];autosize=1;strokeColor=none;fillColor=none;spacing=2;fontSize=10;" vertex="1" parent="1">
          <mxGeometry x="200" y="120" width="100" height="70" as="geometry" />
        </mxCell>
        <mxCell id="0Y6zszm3ao2ILEMnPXkU-31" value="&lt;span id=&quot;docs-internal-guid-ea57087a-7fff-a013-2bbe-6e101f3fcb0f&quot; style=&quot;font-size: 10px;&quot;&gt;&lt;span style=&quot;font-family: Arial; background-color: transparent; font-variant-numeric: normal; font-variant-east-asian: normal; vertical-align: baseline; font-size: 10px;&quot;&gt;&lt;font style=&quot;font-size: 10px;&quot;&gt;POST request:&lt;br style=&quot;font-size: 10px;&quot;&gt;{&lt;br style=&quot;font-size: 10px;&quot;&gt;&amp;nbsp; &quot;name&quot;: &quot;sam&quot;, &lt;br style=&quot;font-size: 10px;&quot;&gt;&amp;nbsp; &quot;emailAddress&quot;: &quot;sam@email.com&quot;,&lt;br style=&quot;font-size: 10px;&quot;&gt;&amp;nbsp; &quot;favouriteBrowser&quot;: &quot;chrome&quot;,&lt;br style=&quot;font-size: 10px;&quot;&gt;&amp;nbsp; &quot;reason&quot;: &quot;extensions&quot;&lt;br style=&quot;font-size: 10px;&quot;&gt;}&lt;br style=&quot;font-size: 10px;&quot;&gt;&lt;/font&gt;&lt;/span&gt;&lt;/span&gt;" style="text;html=1;align=left;verticalAlign=middle;resizable=0;points=[];autosize=1;strokeColor=none;fillColor=none;spacing=2;fontSize=10;" vertex="1" parent="1">
          <mxGeometry x="560" y="90" width="190" height="100" as="geometry" />
        </mxCell>
        <mxCell id="0Y6zszm3ao2ILEMnPXkU-32" value="&lt;span id=&quot;docs-internal-guid-ea57087a-7fff-a013-2bbe-6e101f3fcb0f&quot; style=&quot;font-size: 10px;&quot;&gt;&lt;span style=&quot;font-family: Arial; background-color: transparent; font-variant-numeric: normal; font-variant-east-asian: normal; vertical-align: baseline; font-size: 10px;&quot;&gt;&lt;font style=&quot;font-size: 10px;&quot;&gt;Response:&lt;br style=&quot;font-size: 10px;&quot;&gt;{&lt;br style=&quot;font-size: 10px;&quot;&gt;&amp;nbsp; &quot;totalVotes&quot;:&quot;1337&quot;,&lt;br&gt;&amp;nbsp; &quot;percentage&quot;: {&lt;br&gt;&lt;span style=&quot;white-space: pre;&quot;&gt;	&lt;/span&gt;&quot;chrome&quot;:&quot;40%&quot;,&lt;br&gt;&lt;span style=&quot;white-space: pre;&quot;&gt;	&lt;/span&gt;&quot;IE&quot;:&quot;1%&quot;,&lt;br&gt;&lt;span style=&quot;white-space: pre;&quot;&gt;	&lt;/span&gt;&quot;Safari&quot;:&quot;59%&quot;,&lt;br&gt;&amp;nbsp; },&lt;br&gt;&amp;nbsp; &quot;responses&quot;: {&lt;br&gt;&lt;span style=&quot;white-space: pre;&quot;&gt;	&lt;/span&gt;&quot;response1&quot;, &quot;response2&quot;,&quot;response3...&quot;&lt;br&gt;&amp;nbsp; }&lt;br style=&quot;font-size: 10px;&quot;&gt;}&lt;br style=&quot;font-size: 10px;&quot;&gt;&lt;/font&gt;&lt;/span&gt;&lt;/span&gt;" style="text;html=1;align=left;verticalAlign=middle;resizable=0;points=[];autosize=1;strokeColor=none;fillColor=none;spacing=2;fontSize=10;" vertex="1" parent="1">
          <mxGeometry x="550" y="210" width="220" height="170" as="geometry" />
        </mxCell>
        <mxCell id="0Y6zszm3ao2ILEMnPXkU-33" value="&lt;span id=&quot;docs-internal-guid-ea57087a-7fff-a013-2bbe-6e101f3fcb0f&quot; style=&quot;font-size: 10px;&quot;&gt;&lt;span style=&quot;font-family: Arial; background-color: transparent; font-variant-numeric: normal; font-variant-east-asian: normal; vertical-align: baseline; font-size: 10px;&quot;&gt;&lt;font style=&quot;font-size: 10px;&quot;&gt;if emailAddress exists, do a put request, otherwise, do a post request.&lt;br style=&quot;font-size: 10px;&quot;&gt;&lt;/font&gt;&lt;/span&gt;&lt;/span&gt;" style="text;html=1;align=left;verticalAlign=middle;resizable=0;points=[];autosize=1;strokeColor=none;fillColor=none;spacing=2;fontSize=10;" vertex="1" parent="1">
          <mxGeometry x="800" y="600" width="330" height="30" as="geometry" />
        </mxCell>
        <mxCell id="0Y6zszm3ao2ILEMnPXkU-34" value="" style="endArrow=classic;startArrow=classic;html=1;rounded=0;exitX=1;exitY=0.5;exitDx=0;exitDy=0;entryX=0.5;entryY=0;entryDx=0;entryDy=0;entryPerimeter=0;exitPerimeter=0;" edge="1" parent="1" source="2jFuDwrBtj5Vru6HDha2-3" target="2jFuDwrBtj5Vru6HDha2-2">
          <mxGeometry width="50" height="50" relative="1" as="geometry">
            <mxPoint x="680" y="590" as="sourcePoint" />
            <mxPoint x="1070" y="590" as="targetPoint" />
            <Array as="points">
              <mxPoint x="1120" y="195" />
              <mxPoint x="1120" y="440" />
            </Array>
          </mxGeometry>
        </mxCell>
        <mxCell id="0Y6zszm3ao2ILEMnPXkU-35" value="&lt;font face=&quot;Arial&quot;&gt;send email to user with their response&lt;/font&gt;" style="text;html=1;align=left;verticalAlign=middle;resizable=0;points=[];autosize=1;strokeColor=none;fillColor=none;spacing=2;fontSize=10;" vertex="1" parent="1">
          <mxGeometry x="470" y="530" width="190" height="30" as="geometry" />
        </mxCell>
        <mxCell id="0Y6zszm3ao2ILEMnPXkU-36" value="&lt;font face=&quot;Arial&quot;&gt;connects and authorises &lt;br&gt;frontend/backend connection&lt;/font&gt;" style="text;html=1;align=left;verticalAlign=middle;resizable=0;points=[];autosize=1;strokeColor=none;fillColor=none;spacing=2;fontSize=10;" vertex="1" parent="1">
          <mxGeometry x="790" y="120" width="150" height="40" as="geometry" />
        </mxCell>
      </root>
    </mxGraphModel>
  </diagram>
</mxfile>
